<svg enable-background="new 0 0 120 22" viewBox="0 0 120 22" xmlns="http://www.w3.org/2000/svg" xmlns:xlink="http://www.w3.org/1999/xlink"><linearGradient id="a" gradientUnits="userSpaceOnUse" x1="15.401" x2="2.6152" y1="22.0672" y2="-.078276"><stop offset=".1095" stop-color="#3e9ed8"/><stop offset=".8995" stop-color="#cf4e95"/></linearGradient><g fill="#fff"><path d="m27.7 16.8c0-.3.1-.5.3-.7l8-10.2h-7.5c-.4 0-.7-.3-.7-.7s.3-.7.7-.7h8.8c.4 0 .6.3.7.6 0 .2-.1.5-.3.6l-8.1 10.3h7.8c.4 0 .7.3.7.6 0 .4-.3.7-.6.7 0 0 0 0-.1 0h-9.1c-.3.2-.6-.1-.6-.5z"/><path d="m44.2 16.7v-11.4c0-.4.3-.7.7-.7h8c.4 0 .7.3.6.7 0 .3-.3.6-.6.6h-7.3v4.4h6.5c.4 0 .7.3.7.7s-.3.7-.7.7h-6.4v4.5h7.3c.4 0 .7.3.7.7s-.3.7-.7.7h-8.1c-.4-.2-.7-.5-.7-.9z"/><path d="m59.6 5.2c0-.4.3-.7.7-.7h.2c.3 0 .6.2.7.4l7.8 10v-9.7c0-.4.3-.7.7-.7s.7.3.7.7v11.6c0 .4-.3.7-.6.7h-.1c-.3 0-.6-.2-.8-.4l-8-10.2v10c0 .4-.3.7-.7.7s-.7-.3-.7-.7c0 0 0 0 0-.1z"/><path d="m77.3 16.7v-11.4c0-.4.3-.7.7-.7h8c.4 0 .7.3.7.6s-.3.7-.6.7c0 0 0 0-.1 0h-7.3v4.4h6.5c.4 0 .7.3.7.7s-.3.7-.7.7h-6.5v4.5h7.4c.4 0 .7.3.7.7s-.3.7-.7.7h-8.1c-.3-.2-.7-.5-.7-.9z"/><path d="m92.1 11c-.1-3.6 2.7-6.6 6.3-6.7h.2c1.6-.1 3.1.4 4.4 1.4.2.1.3.4.3.6 0 .4-.3.7-.7.7-.2 0-.3-.1-.5-.2-1-.8-2.3-1.2-3.6-1.2-2.8.1-5 2.4-4.9 5.2v.1c0 3.1 2 5.4 5.1 5.4 1.3 0 2.7-.5 3.7-1.3v-3.2h-3.4c-.4 0-.7-.3-.7-.7s.3-.7.7-.7h4.1c.4 0 .7.3.7.7v3.9c0 .4-.2.7-.5.9-1.4 1-3 1.6-4.7 1.6-3.5.1-6.4-2.6-6.6-6.1.1 0 .1-.2.1-.4z"/><path d="m113.5 12.4-4.8-6.7c-.1-.1-.2-.3-.2-.5 0-.4.4-.7.8-.7.3 0 .6.2.7.4l4.3 6.1 4.3-6.1c.1-.3.4-.4.7-.4.4 0 .7.3.7.7 0 .2-.1.4-.2.5l-4.8 6.6v4.5c0 .4-.3.7-.7.7s-.7-.3-.7-.7z"/></g><path d="m3.3 21.9c-1.4 0-2.7-.8-3.1-2.2-.5-1.3 0-2.8 1.1-3.6l14.6-11.3c.7-.5.9-1.4.6-2.1-.3-.8-1-1.3-1.9-1.3h-11.3c-.8 0-1.6.5-1.9 1.3s0 1.7.6 2.1l1.8 1.4c.3.2.3.6.1.9-.1.3-.5.4-.8.2l-1.8-1.5c-1.1-.8-1.6-2.3-1.1-3.6.4-1.3 1.7-2.2 3.1-2.1h11.4c1.4 0 2.6.9 3.1 2.2s0 2.8-1.1 3.6l-14.6 11.3c-.7.5-.9 1.4-.6 2.1.3.8 1 1.3 1.9 1.3h11.4c.8 0 1.6-.5 1.9-1.3s0-1.6-.6-2.1l-2.1-1.5c-.3-.2-.3-.6-.1-.9.2-.3.6-.4 1-.2l1.9 1.5c1.1.8 1.5 2.3 1 3.6s-1.7 2.2-3.1 2.2zm-1.2-9.4c-.2 0-.4-.1-.5-.3-.2-.3-.2-.7.1-.9l7.9-6.1h-3c-.4.1-.8-.2-.8-.5 0-.4.2-.7.6-.8h.1 4.5c.4 0 .7.2.8.6.1.3 0 .7-.3.9l-9.1 7c-.1.1-.2.1-.3.1zm4.9 5.5c-.4 0-.7-.2-.8-.6-.1-.3 0-.7.3-.9l9.1-7c.3-.2.7-.2.9.1s.2.7-.1.9c0 0 0 0-.1 0l-7.9 6.1h2.8c.4 0 .7.2.7.6s-.2.7-.6.7h-.1z" fill="url(#a)"/></svg>